<?xml version="1.0" encoding="UTF-8"?>
<svg xmlns="http://www.w3.org/2000/svg" viewBox="0 0 2043.81 1067.65">
  <defs>
    <style>
      .cls-1 {
        stroke-width: 8px;
      }

      .cls-1, .cls-2 {
        fill: none;
        stroke: #f67704;
        stroke-miterlimit: 10;
      }

      .cls-3 {
        fill: #9ecfbc;
      }

      .cls-3, .cls-4 {
        stroke-width: 0px;
      }

      .cls-2 {
        stroke-width: 27px;
      }

      .cls-4 {
        fill: #f67704;
      }
    </style>
  </defs>
  <g id="Camada_1" data-name="Camada 1">
    <g>
      <path class="cls-4" d="M.02,763.97c-.54-13.78,10.2-25.39,23.98-25.93l102.18-4c117.71-4.6,188.64,60.53,192.36,155.64l.04.94c3.72,95.11-62.73,168.45-181.39,173.09l-100.29,3.92c-13.78.54-25.39-10.2-25.93-23.98L.02,763.97ZM137.31,982.6c54.62-2.14,89.7-33.69,87.62-86.9l-.04-.94c-2.06-52.74-39.52-81.92-94.14-79.79l-12.24.48c-13.78.54-24.52,12.15-23.98,25.93l4.6,117.71c.54,13.78,12.15,24.52,25.93,23.98l12.24-.48Z"/>
      <path class="cls-4" d="M384.2,723.95l215.18-8.42c13.78-.54,25.39,10.2,25.93,23.98l1.09,27.78c.54,13.78-10.2,25.39-23.98,25.93l-129.4,5.06c-11.23.44-19.98,9.9-19.54,21.13l.18,4.62c.54,13.78,12.15,24.52,25.93,23.98l108.3-4.24c13.78-.54,25.39,10.2,25.93,23.98l.87,22.13c.54,13.78-10.2,25.39-23.98,25.93l-112.92,4.42c-11.23.44-19.98,9.9-19.54,21.13l.27,6.97c.54,13.78,12.15,24.52,25.93,23.98l127.13-4.97c13.78-.54,25.39,10.2,25.93,23.98l1.09,27.78c.54,13.78-10.2,25.39-23.98,25.93l-217.54,8.51c-13.78.54-25.39-10.2-25.93-23.98l-10.94-279.69c-.54-13.78,10.2-25.39,23.98-25.93Z"/>
      <path class="cls-4" d="M828.67,706.56l41.44-1.62c13.78-.54,25.39,10.2,25.93,23.98l7.81,199.64c.54,13.78,12.15,24.52,25.93,23.98l109.71-4.29c13.78-.54,25.39,10.2,25.93,23.98l1.18,30.13c.54,13.78-10.2,25.39-23.98,25.93l-201.06,7.86c-13.78.54-25.39-10.2-25.93-23.98l-10.94-279.69c-.54-13.78,10.2-25.39,23.98-25.93Z"/>
      <path class="cls-4" d="M1120.59,695.14l41.91-1.64c13.78-.54,25.39,10.2,25.93,23.98l10.94,279.69c.54,13.78-10.2,25.39-23.98,25.93l-41.91,1.64c-13.78.54-25.39-10.2-25.93-23.98l-10.94-279.69c-.54-13.78,10.2-25.39,23.98-25.93Z"/>
      <path class="cls-4" d="M1249.58,951.28l18.51-23.96c7.69-9.95,21.55-12.58,32.42-6.25,28.42,16.54,58.82,24.57,90.14,23.35,24.49-.96,37.34-9.95,36.78-24.07l-.04-.94c-.53-13.65-11.66-20.76-56.8-29.37-70.78-13.26-125.71-30.92-128.36-98.73l-.04-.94c-2.39-61.21,44.37-107.37,123.48-110.46,44.91-1.76,82.34,6.47,114.43,23.88,12.88,6.99,17.17,23.39,9.18,35.67l-16.6,25.51c-6.95,10.69-20.81,14.35-32.21,8.65-25.16-12.58-51-18.71-74.18-17.8-22.13.87-32.59,10.71-32.13,22.48l.04.94c.59,15.07,12.15,21.22,58.23,29.79,76.45,13.51,124.5,36.16,126.91,97.84l.04.94c2.63,67.33-49.01,109.44-129.05,112.57-48.51,1.9-95.57-8.96-134.14-32.57-12.63-7.73-15.66-24.79-6.6-36.51Z"/>
      <path class="cls-4" d="M1549.89,844.34l-.04-.94c-3.7-94.64,69.57-174.38,171.28-178.35,101.7-3.98,180.01,68.88,183.71,163.52l.04.94c3.7,94.64-69.57,174.38-171.28,178.35-101.7,3.98-180.01-68.88-183.71-163.52ZM1811.69,834.1l-.04-.94c-1.86-47.56-37.85-87.65-88.24-85.68-49.91,1.95-81.76,43.75-79.9,91.31l.04.94c1.86,47.56,37.85,87.65,87.76,85.7,50.38-1.97,82.23-43.77,80.37-91.33Z"/>
    </g>
    <rect class="cls-4" x="1088.55" y="612.71" width="101.11" height="59" rx="18.18" ry="18.18" transform="translate(-22.47 41.59) rotate(-2.07)"/>
  </g>
  <g id="Camada_10" data-name="Camada 10">
    <path class="cls-2" d="M1947.96,538.72l-386.21-56.02c-15.27-2.22-25.86-16.39-23.64-31.67l46.28-298.32,435.52,63.86-40.28,298.5c-2.22,15.27-16.39,25.86-31.67,23.64Z"/>
    <path class="cls-4" d="M1621.42,65.95h376.32c24.92,0,45.14,20.23,45.14,45.14v84.67h-466.6v-84.67c0-24.92,20.23-45.14,45.14-45.14Z" transform="translate(35.6 -249.54) rotate(7.97)"/>
    <rect class="cls-3" x="1641.26" y="211.17" width="53.39" height="53.39" rx="15.62" ry="15.62" transform="translate(49.07 -228.88) rotate(7.97)"/>
    <rect class="cls-3" x="1805.67" y="234.18" width="53.39" height="53.39" rx="15.62" ry="15.62" transform="translate(53.84 -251.44) rotate(7.97)"/>
    <rect class="cls-3" x="1711.02" y="303.65" width="53.39" height="53.39" rx="15.62" ry="15.62" transform="translate(62.56 -237.66) rotate(7.97)"/>
    <rect class="cls-3" x="1617.74" y="379.21" width="53.39" height="53.39" rx="15.62" ry="15.62" transform="translate(72.13 -224) rotate(7.97)"/>
    <rect class="cls-3" x="1662.33" y="2.01" width="57.78" height="107.51" rx="11.44" ry="11.44" transform="translate(24.05 -233.86) rotate(7.97)"/>
    <rect class="cls-3" x="1904.25" y="35.87" width="57.78" height="107.51" rx="11.55" ry="11.55" transform="translate(31.08 -267.06) rotate(7.97)"/>
    <rect class="cls-3" x="1788.36" y="19.65" width="57.78" height="107.51" rx="11.41" ry="11.41" transform="translate(27.71 -251.16) rotate(7.97)"/>
  </g>
  <g id="Camada_6" data-name="Camada 6">
    <path class="cls-3" d="M964.05,92.3h0c39.91-2.76,71.57,33.11,63.88,72.37l-56.39,288c-5.29,27.01-28.05,47.1-55.5,48.99h0c-39.91,2.76-71.57-33.11-63.88-72.37l56.39-288c5.29-27.01,28.05-47.1,55.5-48.99Z"/>
  </g>
  <g id="Camada_7" data-name="Camada 7">
    <path class="cls-3" d="M471.59,398.31c-6.38-92.45,63.69-181.28,168.87-188.54,95.22-6.58,155.41,51.57,160.84,130.18,6.38,92.45-63.69,181.28-168.87,188.54-95.22,6.58-155.41-51.57-160.84-130.18ZM683.21,353.66c-1.76-25.46-19.07-42.63-43.43-40.94-31.56,2.18-52.59,35.89-50.1,71.88,1.76,25.46,19.07,42.63,43.43,40.94,31.56-2.18,52.59-35.89,50.1-71.88Z"/>
  </g>
  <g id="Camada_8" data-name="Camada 8">
    <path class="cls-3" d="M97.86,185.29c1.93-9.86,10.24-17.2,20.27-17.89l134.14-9.26c71.41-4.93,117.88,7.43,145.69,31.66,23.08,20.1,33.93,48.27,36.03,78.72,3.77,54.53-18.71,104.06-78.25,134.56-10.92,5.59-15.43,18.82-9.95,29.79l37.37,74.78c7.08,14.17-2.53,30.99-18.34,32.09l-91.14,6.29c-9.13.63-17.71-4.4-21.62-12.68l-37.87-80.28c-3.9-8.28-12.49-13.31-21.62-12.68h0c-10.01.69-18.32,8.01-20.26,17.86l-15.66,79.41c-1.94,9.85-10.25,17.17-20.26,17.86l-83.68,5.78c-14.57,1.01-26.13-12.09-23.33-26.43L97.86,185.29ZM240.64,344.17c43.18-2.98,64.5-24.48,62.82-48.84-.54-7.75-3.8-14.76-9.72-19.91-7.69-6.7-20.69-9.7-38.96-8.43l-28.98,2c-10.01.69-18.32,8.01-20.26,17.86l-6.34,32.12c-2.83,14.35,8.73,27.46,23.32,26.46l18.12-1.25Z"/>
  </g>
  <g id="Camada_5" data-name="Camada 5">
    <path class="cls-3" d="M1224.5,398.6c17.42-1.2,33.63-8.36,50.35-21.25,5.26-4.05,12.7-3.65,17.5.93l43.65,41.64c5.69,5.43,5.56,14.58-.31,19.82-30.46,27.17-68.09,44.88-115.6,48.16-91.9,6.35-152.07-43.45-157.54-122.62-6.35-91.9,55.95-188.53,171.1-196.48,99.65-6.88,137.53,58.36,141.92,122.03,1.12,16.18.02,32.15-2.76,46.97-1.12,5.98-6.23,10.39-12.3,10.8l-166.95,11.53c-10.25.71-15.94,12.14-10.4,20.79,7.87,12.29,21.83,19.02,41.33,17.68ZM1254.26,300.32c7.31-.5,13.03-6.77,12.54-14.08,0-.04,0-.09,0-.13-1.15-16.61-14.4-31.27-34.88-29.85-14.19.98-31.06,8.78-42.49,27.37-5.69,9.25,1.71,21.06,12.54,20.31l52.3-3.61Z"/>
    <rect class="cls-3" x="1208.48" y="38.94" width="141.36" height="64" rx="32" ry="32" transform="translate(304.48 902.37) rotate(-43.64)"/>
  </g>
  <g id="Camada_12" data-name="Camada 12">
    <g>
      <path class="cls-3" d="M1906.45,388.54l43.78,66.58c7.51,11.43,12.2,24.48,13.66,38.08l16.33,94.05c2.44,14.03-7.16,27.32-21.25,29.41l-64.79,7.7c-8.13.97-16.32,1.44-24.5,1.35-14.94-.16-27.68-1.65-44.15-5.47l-41.69-9.66c-11.41-2.64-19.02-13.42-17.69-25.06l10.1-88.25c.57-21.29,12.02-41.52,26.67-56.97l42.77-48.11c2.09-2.35,3.24-5.39,3.24-8.53v-8.85c0-4.67-.88-9.36-4.6-11.58l-40.48-22.23c-2.11-1.26-2.24-4.26-.25-5.69,1.36-.97,3.34-2.05,6.22-3.13,9.2-3.45,5.75-3.45,8.05-6.9,2.3-3.45,6.9-4.6,11.5-1.15,4.6,3.45,20.7-13.8,20.7-13.8,0,0,7.71-10.52,29.91-8.05,10.35,1.15,16.1,2.3,23.01,6.9s4.6-20.7,26.46-13.8-4.6,12.65,9.2,25.31c13.8,12.65-8.05,25.31-14.95,31.06-6.9,5.75-27.61,23.01-17.25,36.81Z"/>
      <path class="cls-4" d="M1900.7,391.78l-54.04-2c-1.41-.05-2.67-.91-3.23-2.21h0c-1.47-3.43-.28-7.43,2.82-9.5l1.54-1.03h59.74c.78,0,1.53.31,2.09.86h0c2.17,2.17,2.51,5.58.81,8.13l-.78,1.16c-1.99,2.98-5.37,4.71-8.95,4.58Z"/>
      <path class="cls-4" d="M1838.59,540.92h0c2.79-4.53,8.53-6.25,13.35-4,7.08,3.3,14.23,4.97,20.43,4.97,5.06,0,7.36-1.53,7.36-4.45v-.31c0-3.22-4.6-4.6-13.34-7.05-16.4-4.29-29.43-9.81-29.43-26.52v-.31c0-17.63,14.1-27.44,33.27-27.44,7.94,0,16.08,1.52,23.43,4.29,5.99,2.26,8.66,9.23,5.61,14.86l-.1.18c-2.53,4.68-8.16,6.71-13.11,4.75-5.92-2.35-11.67-3.69-16.14-3.69s-6.75,1.69-6.75,3.99v.31c0,3.22,4.75,4.75,13.49,7.36,16.4,4.6,29.43,10.27,29.43,26.37v.31c0,18.24-13.64,27.75-33.88,27.75-10.13,0-20.18-2.1-29.33-6.42-5.6-2.65-7.56-9.67-4.3-14.94Z"/>
      <line class="cls-1" x1="1856.42" y1="456.98" x2="1856.42" y2="583.51"/>
      <line class="cls-1" x1="1879.42" y1="455.83" x2="1879.42" y2="582.36"/>
    </g>
  </g>
</svg>